<?xml version="1.0" encoding="UTF-8" standalone="no"?>
<!-- Created with Inkscape (http://www.inkscape.org/) -->

<svg
   width="900"
   height="450"
   viewBox="0 0 1049.8369 524.91847"
   version="1.1"
   id="svg1"
   xml:space="preserve"
   xmlns:xlink="http://www.w3.org/1999/xlink"
   xmlns="http://www.w3.org/2000/svg"
   xmlns:svg="http://www.w3.org/2000/svg"><defs
     id="defs1"><linearGradient
       id="linearGradient4"><stop
         id="stop3"
         style="stop-color:#bda483;stop-opacity:1;"
         offset="0" /><stop
         id="stop4"
         style="stop-color:#ffffff"
         offset="1" /></linearGradient><radialGradient
       id="radialGradient3416"
       fx="152.55"
       fy="939.33002"
       gradientUnits="userSpaceOnUse"
       cy="940.71997"
       cx="133.78"
       gradientTransform="scale(2.2137,0.45174)"
       r="140.78"><stop
         id="stop4674"
         style="stop-color:#ffffff"
         offset="0" /><stop
         id="stop4675"
         style="stop-color:#8e642c"
         offset="1" /></radialGradient><linearGradient
       id="linearGradient1542"
       y2="329.09"
       xlink:href="#linearGradient4"
       gradientUnits="userSpaceOnUse"
       y1="284.70999"
       gradientTransform="scale(0.65812,1.5195)"
       x2="432.13"
       x1="608.98999" /><linearGradient
       id="linearGradient1538"><stop
         id="stop1539"
         style="stop-color:#ab642c"
         offset="0" /><stop
         id="stop1540"
         style="stop-color:#ffffff"
         offset="1" /></linearGradient><radialGradient
       id="radialGradient2792"
       fx="246.49001"
       fy="476.26001"
       xlink:href="#linearGradient1538"
       gradientUnits="userSpaceOnUse"
       cy="443.88"
       cx="106.06"
       gradientTransform="scale(1.7216,0.58084)"
       r="261.97" /><marker
       style="overflow:visible"
       id="Sketch-6"
       refX="0"
       refY="0"
       orient="auto-start-reverse"
       markerWidth="1"
       markerHeight="1"
       viewBox="0 0 1 1"
       preserveAspectRatio="xMidYMid"><path
         style="fill:none;stroke:context-stroke;stroke-width:0.4;stroke-linecap:round"
         d="m -4.5421538,-3.2452189 3.83900644,2.60235235 0.56348102,0.59255887 L -2.4921466,1.1808717 -4.4106004,2.139946 -4.5795251,2.8245356 -4.703996,3.0734773 -4.3128019,2.6822832 -3.9749524,2.3088707 0.66603196,-0.12720162 0.02589622,-0.32279868 -1.7613224,-0.60366199 -3.580874,-2.0472634 -4.3186004,-2.392437 l -1.2937699,-0.2549423 2.1825172,0.042166 0.6996091,1.0554873 1.4406512,0.1145833 1.20879971,0.91674665 1.53333299,0.47138389 -1.85995289,1.23785256 -2.03832621,0.9224332 -1.5469949,0.9779853"
         id="path9-0" /></marker><marker
       style="overflow:visible"
       id="RoundedArrow-4"
       refX="0"
       refY="0"
       orient="auto-start-reverse"
       markerWidth="1"
       markerHeight="1"
       viewBox="0 0 1 1"
       preserveAspectRatio="xMidYMid"><path
         transform="scale(0.7)"
         d="m -0.21114562,-4.1055728 6.42229122,3.21114561 a 1,1 90 0 1 0,1.78885438 L -0.21114562,4.1055728 A 1.236068,1.236068 31.717474 0 1 -2,3 v -6 a 1.236068,1.236068 148.28253 0 1 1.78885438,-1.1055728 z"
         style="fill:context-stroke;fill-rule:evenodd;stroke:none"
         id="path8-0" /></marker><marker
       style="overflow:visible"
       id="Sketch-6-9"
       refX="0"
       refY="0"
       orient="auto-start-reverse"
       markerWidth="1"
       markerHeight="1"
       viewBox="0 0 1 1"
       preserveAspectRatio="xMidYMid"><path
         style="fill:none;stroke:context-stroke;stroke-width:0.4;stroke-linecap:round"
         d="m -4.5421538,-3.2452189 3.83900644,2.60235235 0.56348102,0.59255887 L -2.4921466,1.1808717 -4.4106004,2.139946 -4.5795251,2.8245356 -4.703996,3.0734773 -4.3128019,2.6822832 -3.9749524,2.3088707 0.66603196,-0.12720162 0.02589622,-0.32279868 -1.7613224,-0.60366199 -3.580874,-2.0472634 -4.3186004,-2.392437 l -1.2937699,-0.2549423 2.1825172,0.042166 0.6996091,1.0554873 1.4406512,0.1145833 1.20879971,0.91674665 1.53333299,0.47138389 -1.85995289,1.23785256 -2.03832621,0.9224332 -1.5469949,0.9779853"
         id="path9-0-9" /></marker><marker
       style="overflow:visible"
       id="RoundedArrow-4-9"
       refX="0"
       refY="0"
       orient="auto-start-reverse"
       markerWidth="1"
       markerHeight="1"
       viewBox="0 0 1 1"
       preserveAspectRatio="xMidYMid"><path
         transform="scale(0.7)"
         d="m -0.21114562,-4.1055728 6.42229122,3.21114561 a 1,1 90 0 1 0,1.78885438 L -0.21114562,4.1055728 A 1.236068,1.236068 31.717474 0 1 -2,3 v -6 a 1.236068,1.236068 148.28253 0 1 1.78885438,-1.1055728 z"
         style="fill:context-stroke;fill-rule:evenodd;stroke:none"
         id="path8-0-1" /></marker><marker
       style="overflow:visible"
       id="Sketch-5"
       refX="0"
       refY="0"
       orient="auto-start-reverse"
       markerWidth="1"
       markerHeight="1"
       viewBox="0 0 1 1"
       preserveAspectRatio="xMidYMid"><path
         style="fill:none;stroke:context-stroke;stroke-width:0.4;stroke-linecap:round"
         d="m -4.5421538,-3.2452189 3.83900644,2.60235235 0.56348102,0.59255887 L -2.4921466,1.1808717 -4.4106004,2.139946 -4.5795251,2.8245356 -4.703996,3.0734773 -4.3128019,2.6822832 -3.9749524,2.3088707 0.66603196,-0.12720162 0.02589622,-0.32279868 -1.7613224,-0.60366199 -3.580874,-2.0472634 -4.3186004,-2.392437 l -1.2937699,-0.2549423 2.1825172,0.042166 0.6996091,1.0554873 1.4406512,0.1145833 1.20879971,0.91674665 1.53333299,0.47138389 -1.85995289,1.23785256 -2.03832621,0.9224332 -1.5469949,0.9779853"
         id="path9-8" /></marker><marker
       style="overflow:visible"
       id="RoundedArrow-1"
       refX="0"
       refY="0"
       orient="auto-start-reverse"
       markerWidth="1"
       markerHeight="1"
       viewBox="0 0 1 1"
       preserveAspectRatio="xMidYMid"><path
         transform="scale(0.7)"
         d="m -0.21114562,-4.1055728 6.42229122,3.21114561 a 1,1 90 0 1 0,1.78885438 L -0.21114562,4.1055728 A 1.236068,1.236068 31.717474 0 1 -2,3 v -6 a 1.236068,1.236068 148.28253 0 1 1.78885438,-1.1055728 z"
         style="fill:context-stroke;fill-rule:evenodd;stroke:none"
         id="path8-4" /></marker><marker
       style="overflow:visible"
       id="Sketch-5-2"
       refX="0"
       refY="0"
       orient="auto-start-reverse"
       markerWidth="1"
       markerHeight="1"
       viewBox="0 0 1 1"
       preserveAspectRatio="xMidYMid"><path
         style="fill:none;stroke:context-stroke;stroke-width:0.4;stroke-linecap:round"
         d="m -4.5421538,-3.2452189 3.83900644,2.60235235 0.56348102,0.59255887 L -2.4921466,1.1808717 -4.4106004,2.139946 -4.5795251,2.8245356 -4.703996,3.0734773 -4.3128019,2.6822832 -3.9749524,2.3088707 0.66603196,-0.12720162 0.02589622,-0.32279868 -1.7613224,-0.60366199 -3.580874,-2.0472634 -4.3186004,-2.392437 l -1.2937699,-0.2549423 2.1825172,0.042166 0.6996091,1.0554873 1.4406512,0.1145833 1.20879971,0.91674665 1.53333299,0.47138389 -1.85995289,1.23785256 -2.03832621,0.9224332 -1.5469949,0.9779853"
         id="path9-8-6" /></marker><marker
       style="overflow:visible"
       id="RoundedArrow-1-9"
       refX="0"
       refY="0"
       orient="auto-start-reverse"
       markerWidth="1"
       markerHeight="1"
       viewBox="0 0 1 1"
       preserveAspectRatio="xMidYMid"><path
         transform="scale(0.7)"
         d="m -0.21114562,-4.1055728 6.42229122,3.21114561 a 1,1 90 0 1 0,1.78885438 L -0.21114562,4.1055728 A 1.236068,1.236068 31.717474 0 1 -2,3 v -6 a 1.236068,1.236068 148.28253 0 1 1.78885438,-1.1055728 z"
         style="fill:context-stroke;fill-rule:evenodd;stroke:none"
         id="path8-4-4" /></marker><marker
       style="overflow:visible"
       id="Sketch-6-4"
       refX="0"
       refY="0"
       orient="auto-start-reverse"
       markerWidth="1"
       markerHeight="1"
       viewBox="0 0 1 1"
       preserveAspectRatio="xMidYMid"><path
         style="fill:none;stroke:context-stroke;stroke-width:0.4;stroke-linecap:round"
         d="m -4.5421538,-3.2452189 3.83900644,2.60235235 0.56348102,0.59255887 L -2.4921466,1.1808717 -4.4106004,2.139946 -4.5795251,2.8245356 -4.703996,3.0734773 -4.3128019,2.6822832 -3.9749524,2.3088707 0.66603196,-0.12720162 0.02589622,-0.32279868 -1.7613224,-0.60366199 -3.580874,-2.0472634 -4.3186004,-2.392437 l -1.2937699,-0.2549423 2.1825172,0.042166 0.6996091,1.0554873 1.4406512,0.1145833 1.20879971,0.91674665 1.53333299,0.47138389 -1.85995289,1.23785256 -2.03832621,0.9224332 -1.5469949,0.9779853"
         id="path9-0-91" /></marker><marker
       style="overflow:visible"
       id="RoundedArrow-4-7"
       refX="0"
       refY="0"
       orient="auto-start-reverse"
       markerWidth="1"
       markerHeight="1"
       viewBox="0 0 1 1"
       preserveAspectRatio="xMidYMid"><path
         transform="scale(0.7)"
         d="m -0.21114562,-4.1055728 6.42229122,3.21114561 a 1,1 90 0 1 0,1.78885438 L -0.21114562,4.1055728 A 1.236068,1.236068 31.717474 0 1 -2,3 v -6 a 1.236068,1.236068 148.28253 0 1 1.78885438,-1.1055728 z"
         style="fill:context-stroke;fill-rule:evenodd;stroke:none"
         id="path8-0-5" /></marker></defs><g
     id="layer1"
     transform="translate(-53.714668,-48.264741)"><g
       id="g4668"
       transform="matrix(0.57908503,0,0,0.63838334,122.84755,87.526392)"><ellipse
         id="path2793"
         style="fill:url(#radialGradient3416);fill-rule:evenodd;stroke:#000000;stroke-width:1pt"
         transform="matrix(1.0483,0,0,1.3829,-27.707,-221.26)"
         cx="349.81476"
         cy="421.83188"
         rx="192.90196"
         ry="38.868305" /><path
         id="rect908"
         style="fill:url(#linearGradient1542);fill-rule:evenodd;stroke:#000000;stroke-width:1pt"
         d="m 299.43,381.52 c 17.27,82.06 -43.19,154.04 0,233.21 26.87,10.08 55.18,10.08 80.62,0 37.42,-77.73 -33.11,-152.59 0,-233.21 -21.12,-12.95 -53.75,-12.95 -80.62,0 z" /><path
         id="rect1543"
         style="fill:url(#radialGradient2792);fill-rule:evenodd;stroke:#000002;stroke-width:0.66888pt"
         d="m 237.47,241.41 c -64.42,26.62 -116.3,50.31 -100.3,125.85 12.51,-31.97 387.88,-42.88 404.17,-1.91 C 553.39,307.57 520.5,275.54 447.2,245.6 393.28,229.47 298.49,221.58 237.47,241.41 Z" /></g><g
       id="g92"
       transform="translate(105.20956,126.79293)"><path
         style="fill:#684a3f;fill-opacity:0.537255;stroke:#694a40;stroke-width:5.60942;stroke-dasharray:none;stroke-dashoffset:0;stroke-opacity:1;marker-start:url(#Sketch-5);marker-mid:url(#RoundedArrow-1)"
         d="M 668.87272,307.58165 530.55045,344.22288"
         id="path92-3" /><path
         style="fill:#bd865a;fill-opacity:1;stroke:#b37341;stroke-width:5.83141;stroke-dasharray:none;stroke-dashoffset:0;stroke-opacity:1;marker-start:url(#Sketch-5-2);marker-mid:url(#RoundedArrow-1-9)"
         d="m 271.48779,303.1406 152.70235,40.26731"
         id="path92-3-7" /><text
         xml:space="preserve"
         style="font-style:normal;font-variant:normal;font-weight:bold;font-stretch:normal;font-size:23.8917px;font-family:'Marker Felt';-inkscape-font-specification:'Marker Felt Bold';font-variant-ligatures:normal;font-variant-caps:normal;font-variant-numeric:normal;font-variant-east-asian:normal;letter-spacing:0.243183px;word-spacing:0.0511965px;direction:ltr;fill:#474747;fill-opacity:0.764706;stroke:#b37341;stroke-width:1;stroke-dasharray:none;stroke-dashoffset:0;stroke-opacity:1"
         x="445.44113"
         y="355.97675"
         id="text93-1"><tspan
           id="tspan93-5"
           x="445.44113"
           y="355.97675"
           style="font-style:normal;font-variant:normal;font-weight:bold;font-stretch:normal;font-size:23.8917px;font-family:'American Typewriter';-inkscape-font-specification:'American Typewriter';letter-spacing:0.243183px;word-spacing:0.0511965px;fill:#474747;fill-opacity:1;stroke:none;stroke-width:1;stroke-dasharray:none;stroke-opacity:1">Pied</tspan></text></g><g
       id="g93"
       transform="translate(109.37873,186.2736)"><path
         style="fill:#bd865a;fill-opacity:1;stroke:#b37341;stroke-width:4.1642;stroke-dasharray:none;stroke-dashoffset:0;stroke-opacity:1;marker-start:url(#Sketch-6);marker-mid:url(#RoundedArrow-4)"
         d="M 136.10784,176.85822 72.990658,231.68274"
         id="path92-6" /><text
         xml:space="preserve"
         style="font-style:normal;font-variant:normal;font-weight:bold;font-stretch:normal;font-size:23.8917px;font-family:'Marker Felt';-inkscape-font-specification:'Marker Felt Bold';font-variant-ligatures:normal;font-variant-caps:normal;font-variant-numeric:normal;font-variant-east-asian:normal;letter-spacing:0.243183px;word-spacing:0.0511965px;direction:ltr;fill:#bd865a;fill-opacity:1;stroke:#b37341;stroke-width:1;stroke-dasharray:none;stroke-dashoffset:0;stroke-opacity:1"
         x="24.564507"
         y="257.28003"
         id="text92-8"><tspan
           id="tspan92-5"
           x="24.564507"
           y="257.28003"
           style="font-style:normal;font-variant:normal;font-weight:bold;font-stretch:normal;font-size:23.8917px;font-family:'American Typewriter';-inkscape-font-specification:'American Typewriter';letter-spacing:0.243183px;word-spacing:0.0511965px;stroke:none;stroke-width:1;stroke-dasharray:none">Tubes</tspan></text></g><g
       id="g94"
       transform="translate(466.86185,-25.775685)"><path
         style="fill:#d23131;fill-opacity:1;stroke:#694a40;stroke-width:3.85256;stroke-dasharray:none;stroke-dashoffset:0;stroke-opacity:1;marker-start:url(#Sketch-6);marker-mid:url(#RoundedArrow-4)"
         d="M 230.74203,281.99942 172.85418,230.83474"
         id="path93" /><path
         style="fill:#bd865a;fill-opacity:1;stroke:#b37341;stroke-width:3.85256;stroke-dasharray:none;stroke-dashoffset:0;stroke-opacity:1;marker-start:url(#Sketch-6-9);marker-mid:url(#RoundedArrow-4-9)"
         d="m -11.358146,286.87727 57.88785,-51.16468"
         id="path93-3" /><text
         xml:space="preserve"
         style="font-style:normal;font-variant:normal;font-weight:bold;font-stretch:normal;font-size:23.8917px;font-family:'Marker Felt';-inkscape-font-specification:'Marker Felt Bold';font-variant-ligatures:normal;font-variant-caps:normal;font-variant-numeric:normal;font-variant-east-asian:normal;letter-spacing:0.243183px;word-spacing:0.0511965px;direction:ltr;fill:#464646;fill-opacity:1;stroke:none;stroke-width:1;stroke-dasharray:none;stroke-dashoffset:0;stroke-opacity:1"
         x="58.900364"
         y="228.88947"
         id="text93"><tspan
           id="tspan93"
           x="58.900364"
           y="228.88947"
           style="font-style:normal;font-variant:normal;font-weight:bold;font-stretch:normal;font-size:23.8917px;font-family:'American Typewriter';-inkscape-font-specification:'American Typewriter';letter-spacing:0.243183px;word-spacing:0.0511965px;fill:#464646;fill-opacity:1;stroke:none;stroke-width:1;stroke-dasharray:none;stroke-opacity:1">Chapeau</tspan></text><text
         xml:space="preserve"
         style="font-style:normal;font-variant:normal;font-weight:bold;font-stretch:normal;font-size:32px;font-family:'Marker Felt';-inkscape-font-specification:'Marker Felt Bold';font-variant-ligatures:normal;font-variant-caps:normal;font-variant-numeric:normal;font-variant-east-asian:normal;letter-spacing:0.243183px;word-spacing:0.0511965px;direction:ltr;fill:#b37341;fill-opacity:1;stroke:#b37341;stroke-width:1;stroke-dasharray:none;stroke-dashoffset:0;stroke-opacity:1"
         x="-367.84586"
         y="172.23479"
         id="text93-8"><tspan
           id="tspan93-7"
           x="-367.84586"
           y="172.23479"
           style="font-style:normal;font-variant:normal;font-weight:bold;font-stretch:normal;font-size:32px;font-family:'American Typewriter';-inkscape-font-specification:'American Typewriter';letter-spacing:0.243183px;word-spacing:0.0511965px;fill:#b37341;fill-opacity:1;stroke:none;stroke-width:1;stroke-dasharray:none;stroke-opacity:1">Les champignons à tubes</tspan></text><text
         xml:space="preserve"
         style="font-style:normal;font-variant:normal;font-weight:bold;font-stretch:normal;font-size:32px;font-family:'Marker Felt';-inkscape-font-specification:'Marker Felt Bold';font-variant-ligatures:normal;font-variant-caps:normal;font-variant-numeric:normal;font-variant-east-asian:normal;letter-spacing:0.243183px;word-spacing:0.0511965px;direction:ltr;fill:#694a40;fill-opacity:1;stroke:none;stroke-width:1;stroke-dasharray:none;stroke-dashoffset:0;stroke-opacity:1"
         x="179.13367"
         y="172.81229"
         id="text93-8-9"><tspan
           id="tspan93-7-0"
           x="179.13367"
           y="172.81229"
           style="font-style:normal;font-variant:normal;font-weight:bold;font-stretch:normal;font-size:32px;font-family:'American Typewriter';-inkscape-font-specification:'American Typewriter';letter-spacing:0.243183px;word-spacing:0.0511965px;fill:#694a40;fill-opacity:1;stroke:none;stroke-width:1;stroke-dasharray:none;stroke-opacity:1">Les champignons à lames</tspan></text></g><g
       style="enable-background:new"
       id="g1"
       transform="matrix(2.4072536,0,0,3.2520543,473.32554,174.47292)"><g
         id="g3935"
         transform="translate(63.517811,-914.01911)"><g
           id="g4171"
           transform="matrix(0.38817,0,0,0.41008,-62.719,854.22)"><path
             id="path4173"
             d="m 484,200.28 c -0.82058,2.1194 5.1178,3.6979 6.0776,5.4657 2.0722,2.0852 3.277,5.1595 2.0982,8.0079 -3.0024,9.7807 -12.817,15.804 -22.143,18.456 -13.586,3.2589 -26.792,7.9505 -40.376,11.145 -7.6198,1.7875 -15.58,0.68742 -23.246,2.3864 -10.36,1.6158 -20.189,5.793 -30.667,6.7281 -24.298,2.8857 -48.843,1.5055 -73.22,0.56057 -18.298,-0.96405 -36.757,-1.2442 -54.652,-5.5404 -5.0518,-1.5109 -11.252,-1.0667 -15.031,-5.3443 -3.4791,-3.5527 0.11509,-10.694 1.6392,-15.417 -0.81509,-2.3287 -8.1666,1.869 -9.5248,2.4247 -10.191,5.8035 -20.106,15.938 -24.039,27.283 1.8417,4.8813 4.8275,8.0431 9.9299,10.217 9.5271,5.2838 20.417,6.9015 30.601,10.389 14.74,2.7148 29.836,2.8044 44.785,3.2681 14.908,-0.0137 29.819,1.1713 44.721,0.50532 11.642,-1.1273 23.304,-1.9875 34.998,-2.3738 10.472,-0.17369 20.775,-2.0282 30.907,-4.5605 9.8841,-2.3527 19.998,-3.9179 30.212,-3.6137 12.346,-0.34127 23.482,-6.427 35.336,-9.1948 23.246,-6.2826 46.794,-12.301 69.037,-21.707 4.8952,-2.6752 10.125,-3.845 10.971,-9.8431 0.38411,-4.74 -5.5696,-11.64 -8.6887,-14.525 -12.95,-10.146 -29.748,-12.984 -45.686,-14.735 -0.38921,-0.16883 -3.6658,-0.0355 -4.0379,0.0182 z"
             style="color:#000000;fill:#694a40;enable-background:accumulate" /><path
             id="path4175"
             d="m 406.83,197.63 c -20.464,0.21326 -40.952,-0.0771 -61.396,0.89095 -26.83,2.8036 -53.391,7.904 -79.836,13.219 -8.9199,1.4917 -16.681,6.304 -24.979,9.645 -4.0376,2.1969 -9.4446,3.4478 -11.755,7.8011 -2.0395,6.3317 1.8266,13.852 7.8324,16.41 15.933,4.1271 32.278,6.6674 48.75,7.2739 29.434,1.4599 59.017,3.2502 88.431,0.54521 13.58,-1.1627 26.194,-7.0082 39.774,-7.9388 6.3929,-0.32721 12.851,-0.35676 19.058,-2.1453 12.176,-3.1155 24.108,-7.1472 36.311,-10.169 10.086,-2.581 20.373,-8.8378 23.781,-19.175 1.6524,-4.3996 -1.527,-8.4099 -4.4794,-11.308 -1.4327,-2.5839 -4.1784,-2.7817 -6.8238,-2.8939 -24.822,-2.1583 -49.769,-2.2984 -74.668,-2.1542 z m -26.742,7.9122 c 16.953,0.16037 34.152,1.4486 50.293,6.8218 3.4802,1.7648 6.8185,4.5732 8.3511,8.2181 1.3283,1.9817 0.11814,4.4416 -1.9548,5.2793 -8.2459,3.1473 -17.241,3.9622 -25.904,5.7713 -13.416,2.3451 -26.839,4.7156 -40.49,4.9117 -10.73,0.5283 -21.328,2.6359 -32.103,2.5183 -11.604,0.64767 -23.291,-0.53714 -34.522,-3.321 -3.5009,-0.49336 -5.2387,-4.1891 -4.7074,-7.4335 0.3842,-5.6046 6.0136,-8.8447 10.239,-11.569 12.88,-7.1306 27.959,-8.242 42.274,-10.213 9.4726,-0.94755 19.013,-0.96743 28.524,-0.98404 z"
             style="color:#000000;fill:#786060;enable-background:accumulate" /><path
             id="path4177"
             d="m 393.02,210.11 c -5.7204,-0.15181 -11.219,1.2913 -16.696,2.5469 -7.9964,1.6803 -16.117,0.41283 -24.034,-0.7487 -9.4752,-0.79142 -18.842,1.6223 -27.914,4.0262 -4.6184,2.0259 -9.5583,3.9628 -13.271,7.4468 -1.9936,2.3746 0.86474,4.9216 2.9787,5.758 6.5718,3.9705 16.917,4.8087 24.36,4.1136 3.8094,-0.26492 6.1502,-2.0486 8.9907,1.2188 2.5482,1.491 5.1333,-1.2134 7.5075,-1.9604 4.6401,-2.6213 9.7085,-4.4531 15.112,-4.2364 9.9867,-0.56943 19.737,1.8328 29.628,2.4734 5.909,-0.068 12.134,-2.2213 16.21,-6.609 2.4368,-2.5435 1.5729,-6.5145 -0.97074,-8.617 -2.4804,-3.0615 -6.0982,-5.0078 -10.066,-5.0133 -3.9312,-0.37591 -7.8874,-0.51936 -11.835,-0.39894 z"
             style="color:#000000;fill:#715245;enable-background:accumulate" /><path
             id="path4179"
             d="m 403.73,288.62 c -13.683,0.94534 -27.488,-0.23518 -41.098,1.6497 -5.4444,0.87885 -10.732,2.6695 -16.295,2.8184 -1.9453,1.5999 -0.46734,5.0277 -0.97492,7.3666 -0.3808,15.1 0.19031,30.303 -1.2059,45.333 -0.54345,7.1328 -5.6228,13.723 -3.8963,21.037 2.3618,6.6044 9.5059,9.4086 14.694,13.358 4.3798,3.5013 10.109,4.417 15.107,6.7227 3.6253,1.5769 7.9514,1.5222 11.662,0.33133 5.8944,-3.004 11.758,-6.3942 16.822,-10.718 5.0002,-11.446 10.745,-22.749 12.841,-35.164 2.749,-11.7 0.69348,-23.832 0.0613,-35.679 -0.64124,-5.4607 -0.67561,-11.1 -2.1172,-16.404 -1.3794,-1.3042 -3.8903,-0.42946 -5.5984,-0.6516 z"
             style="color:#000000;fill:#bbb4a4;enable-background:accumulate" /><path
             id="path4181"
             d="m 394.55,287.65 c -16.376,0.24772 -32.829,0.94999 -48.835,4.7159 -1.3389,4.546 -0.65184,10.934 0.36738,15.52 11.228,2.1488 25.275,-7.4819 34.491,-0.60518 8.064,6.0173 7.7796,19.025 8.0843,29.082 0.52763,17.416 -5.7925,34.403 -10.925,51.117 1.9383,2.9652 6.3069,-0.42174 8.4091,-1.9602 1.7501,0.11684 3.371,-0.64045 4.4602,-1.9034 2.1087,-3.1423 6.8675,-5.1214 9.238,-7.6053 -0.45955,-2.0628 1.4705,-1.4764 1.5575,-3.0197 2.9716,-6.1994 1.3562,-14.514 1.9705,-21.534 0.73249,-7.59 0.39668,-15.049 -1.7707,-22.406 -1.1376,-7.1299 -4.7402,-14.696 -0.65436,-21.572 0.63882,-3.584 3.2522,-6.0842 7.0027,-5.7292 2.7016,0.12562 4.2228,-2.613 2.5718,-5.35 -0.46181,-3.5119 1.1038,-8.4673 -3.8926,-8.523 -4.0046,-0.47261 -8.0517,-0.25787 -12.074,-0.22727 z"
             style="color:#000000;fill:#aaa294;enable-background:accumulate" /><path
             id="path4183"
             d="m 375.64,204.76 c -10.567,0.11037 -21.182,0.15203 -31.635,1.8734 -13.075,1.7616 -26.735,3.7092 -37.964,11.152 -4.0213,2.5703 -7.9896,6.4882 -7.8869,11.607 -0.30234,3.3353 2.1269,6.6702 5.4777,7.211 9.0459,2.1697 18.341,3.6249 27.672,3.3871 9.9192,0.12454 19.818,-0.56682 29.666,-1.7133 10.597,-1.0735 21.29,-1.0684 31.819,-2.7924 12.478,-1.8814 24.921,-3.9938 37.256,-6.6478 2.9748,-0.91057 6.3267,-1.3302 8.8225,-3.305 1.9248,-1.7875 1.3417,-4.6329 0,-6.5564 -2.6954,-5.2814 -8.4392,-7.9047 -13.95,-9.1645 -16.013,-4.3175 -32.757,-5.2697 -49.276,-5.0511 z m 18.627,6.2412 c 4.8634,0.11137 9.8533,-0.0331 14.566,1.243 3.1026,1.3205 6.1672,3.7058 7.3267,6.9765 0.69997,2.1049 -0.51867,4.1249 -2.1526,5.3857 -4.8488,4.2076 -17.986,5.811 -24.303,4.8472 -10.994,-3.805 -20.19,-4.4041 -25.671,-1.4531 -5.299,1.0169 -9.7761,4.4039 -14.89,5.8648 -1.8794,0.0113 -6.5258,-2.9544 -8.4471,-3.0521 -5.9753,-0.80012 -8.4384,1.4374 -14.442,0.91926 -5.0132,-0.28474 -10.009,-1.9803 -14.042,-5.0101 -0.78492,-0.76051 -1.3598,-2.295 -0.0733,-2.9116 4.1496,-3.5827 9.4267,-5.8514 14.587,-7.5313 8.6198,-2.2022 17.398,-4.3174 26.374,-3.3088 8.6608,1.1369 17.61,2.3247 26.185,-0.0486 4.9526,-1.1084 9.8849,-2.0121 14.983,-1.9209 z"
             style="color:#000000;fill:#786060;enable-background:accumulate" /><path
             id="path4185"
             d="m 540.45,228.57 c -1.302,1.5689 -0.81972,2.8796 -2.4174,4.3685 -4.6742,6.3692 -12.878,8.0779 -19.806,10.858 -20.351,7.4027 -41.409,12.571 -62.251,18.454 -9.645,2.5911 -18.786,7.3424 -28.954,7.1968 -11.428,0.0717 -22.74,1.8211 -33.814,4.5471 -11.057,2.9596 -22.499,3.7136 -33.923,4.0766 -9.9492,0.12931 -19.803,1.6454 -29.724,2.115 -16.673,0.54735 -33.336,-0.86737 -49.999,-0.5854 -12.414,-0.65915 -25.027,-0.80965 -37.21,-3.1945 -9.6146,-2.6468 -19.56,-4.9175 -28.61,-9.1041 -3.8334,-1.6938 -7.8899,-3.7574 -9.5336,-7.8869 -0.49887,-1.5875 -3.054,-5.5807 -3.5794,-2.1303 0.33654,11.44 9.4296,20.512 19.425,24.834 14.854,6.5366 31.383,7.0504 47.284,9.1075 17.686,1.8429 35.427,3.5971 53.234,3.1354 11.607,-0.3843 23.411,0.52628 34.84,-1.8757 17.242,-4.4446 35.399,-2.076 53.029,-3.6241 10.41,-0.9475 19.841,-5.7715 29.879,-8.318 24.109,-7.1281 48.931,-12.492 72.418,-21.718 9.7034,-4.1691 19.361,-8.7362 27.931,-14.956 3.4871,-2.8521 3.6775,-7.9228 3.9713,-12.088 -0.15922,-1.3338 0.31643,-4.0161 -2.1922,-3.2117 z"
             style="color:#000000;fill:#90897c;enable-background:accumulate" /><path
             id="path4187"
             style="fill:none;stroke:#e6e6e6;stroke-width:2.0963;stroke-linecap:round"
             d="m 380.97,278.11 0.90489,5.6018 v 4.357" /><path
             id="path4189"
             style="fill:none;stroke:#e6e6e6;stroke-width:2.1293;stroke-linecap:round"
             d="m 385.21,277.3 0.87183,5.9991 v 4.666" /><path
             id="path4191"
             style="fill:none;stroke:#e6e6e6;stroke-width:2.1411;stroke-linecap:round"
             d="m 389.76,276.71 0.86007,6.1484 v 4.7821" /><path
             id="path4193"
             style="fill:none;stroke:#e6e6e6;stroke-width:2.1673;stroke-linecap:round"
             d="m 393.31,276.07 0.83387,6.4976 v 5.0537" /><path
             id="path4195"
             style="fill:none;stroke:#e6e6e6;stroke-width:2.1884;stroke-linecap:round"
             d="m 396.76,275.21 0.81271,6.7976 v 5.2871" /><path
             id="path4197"
             style="fill:none;stroke:#e6e6e6;stroke-width:2.2019;stroke-linecap:round"
             d="m 399.99,274.48 0.79921,6.998 v 5.4429" /><path
             id="path4199"
             style="fill:none;stroke:#e6e6e6;stroke-width:2.2337;stroke-linecap:round"
             d="m 403.76,273.63 0.76741,7.5 v 5.8333" /><path
             id="path4201"
             style="fill:none;stroke:#e6e6e6;stroke-width:2.2428;stroke-linecap:round"
             d="m 407.49,273.08 0.75839,7.6509 v 5.9507" /><path
             id="path4203"
             style="fill:none;stroke:#e6e6e6;stroke-width:2.2307;stroke-linecap:round"
             d="m 411.21,272.62 0.77047,7.4497 v 5.7942" /><path
             id="path4205"
             style="fill:none;stroke:#e6e6e6;stroke-width:2.215;stroke-linecap:round"
             d="m 415.79,272.15 0.78617,7.1986 v 5.5989" /><path
             id="path4207"
             style="fill:none;stroke:#e6e6e6;stroke-width:2.1986;stroke-linecap:round"
             d="m 420.06,271.4 0.80255,6.9479 v 5.4039" /><path
             id="path4209"
             style="fill:none;stroke:#e6e6e6;stroke-width:2.1449;stroke-linecap:round"
             d="m 423.93,271.38 0.85621,6.1983 v 4.8209" /><path
             id="path4211"
             style="fill:none;stroke:#e6e6e6;stroke-width:2.0697;stroke-linecap:round"
             d="m 432.81,270.62 0.93147,5.3048 v 4.126" /><path
             id="path4213"
             style="fill:none;stroke:#e6e6e6;stroke-width:2.1005;stroke-linecap:round"
             d="m 428.79,271.05 0.90061,5.6514 v 4.3955" /><path
             id="path4215"
             style="fill:none;stroke:#e6e6e6;stroke-width:2.051;stroke-linecap:round"
             d="m 437.21,269.6 0.95011,5.1074 v 3.9724" /><path
             id="path4217"
             style="fill:none;stroke:#e6e6e6;stroke-width:2.0365;stroke-linecap:round"
             d="m 441.66,268.44 0.96463,4.9596 v 3.8575" /><path
             id="path4219"
             style="fill:none;stroke:#e6e6e6;stroke-width:2.0365;stroke-linecap:round"
             d="m 445.81,267.29 0.37338,4.9596 -0.45987,3.8575" /><path
             id="path4221"
             style="fill:none;stroke:#e6e6e6;stroke-width:2.0561;stroke-linecap:round"
             d="m 449.54,266.06 0.35895,5.3125 -0.43473,4.132" /><path
             id="path4223"
             style="fill:none;stroke:#e6e6e6;stroke-width:2.0637;stroke-linecap:round"
             d="m 453.4,264.69 0.35134,5.4122 -0.43273,4.2095" /><path
             id="path4225"
             style="fill:none;stroke:#e6e6e6;stroke-width:2.0608;stroke-linecap:round"
             d="m 458.06,263.59 0.35365,5.3618 -0.43557,4.1703" /><path
             id="path4227"
             style="fill:none;stroke:#e6e6e6;stroke-width:2.0637;stroke-linecap:round"
             d="m 462.66,262.12 0.35134,5.4122 -0.43273,4.2095" /><path
             id="path4229"
             style="fill:none;stroke:#e6e6e6;stroke-width:2.0599;stroke-linecap:round"
             d="m 467.61,261.15 0.27606,5.3103 -0.50218,4.1303" /><path
             id="path4231"
             style="fill:none;stroke:#e6e6e6;stroke-width:2.067;stroke-linecap:round"
             d="m 472.81,259.54 0.11441,5.3583 -0.62643,4.1676" /><path
             id="path4233"
             style="fill:none;stroke:#e6e6e6;stroke-width:2.0649;stroke-linecap:round"
             d="m 477.57,258.34 0.0341,5.3075 -0.69425,4.1281" /><path
             id="path4235"
             style="fill:none;stroke:#e6e6e6;stroke-width:2.0966;stroke-linecap:round"
             d="m 482.37,256.71 -0.20637,5.5496 -0.87116,4.3164" /><path
             id="path4237"
             style="fill:none;stroke:#e6e6e6;stroke-width:2.0764;stroke-linecap:round"
             d="m 486.88,255.5 0.0335,5.457 -0.68275,4.2444" /><path
             id="path4239"
             style="fill:none;stroke:#e6e6e6;stroke-width:2.0634;stroke-linecap:round"
             d="m 491.6,254.3 0.11508,5.3084 -0.63009,4.1288" /><path
             id="path4241"
             style="fill:none;stroke:#e6e6e6;stroke-width:2.0707;stroke-linecap:round"
             d="m 496.51,252.61 0.11374,5.4083 -0.62281,4.2064" /><path
             id="path4243"
             style="fill:none;stroke:#e6e6e6;stroke-width:2.0547;stroke-linecap:round"
             d="m 500.87,251.4 0.19815,5.2093 -0.57304,4.0517" /><path
             id="path4245"
             style="fill:none;stroke:#e6e6e6;stroke-width:2.0674;stroke-linecap:round"
             d="m 505.17,250.26 -0.21196,5.2541 -0.89473,4.0865" /><path
             id="path4247"
             style="fill:none;stroke:#e6e6e6;stroke-width:2.0544;stroke-linecap:round"
             d="m 509.9,248.51 -0.048,5.1575 -0.77149,4.0114" /><path
             id="path4249"
             style="fill:none;stroke:#e6e6e6;stroke-width:2.0365;stroke-linecap:round"
             d="m 513.97,247.13 0.11998,4.9596 -0.65695,3.8575" /><path
             id="path4251"
             style="fill:none;stroke:#e6e6e6;stroke-width:2.0365;stroke-linecap:round"
             d="m 518.27,245.37 0.0778,5.0519 -0.67805,3.7974" /><path
             id="path4253"
             style="fill:none;stroke:#e6e6e6;stroke-width:2.0365;stroke-linecap:round"
             d="m 522.49,243.78 -0.21695,5.0479 -0.89838,3.7514" /><path
             id="path4255"
             style="fill:none;stroke:#e6e6e6;stroke-width:2.0182;stroke-linecap:round"
             d="m 526.52,242.14 -0.44854,4.8839 -1.0787,3.5975" /><path
             id="path4257"
             style="fill:none;stroke:#e6e6e6;stroke-width:1.9814;stroke-linecap:round"
             d="m 530.36,240.56 -0.73337,4.6061 -1.299,3.3562" /><path
             id="path4259"
             style="fill:none;stroke:#e6e6e6;stroke-width:1.9528;stroke-linecap:round"
             d="m 533.64,238.34 -0.3194,4.3484 -1.0234,3.2212" /><path
             id="path4261"
             style="fill:none;stroke:#e6e6e6;stroke-width:1.8713;stroke-linecap:round"
             d="m 536.89,236.29 -0.20769,4.0922 -0.9203,3.0056" /><path
             id="path4263"
             style="fill:none;stroke:#e6e6e6;stroke-width:2.0365;stroke-linecap:round"
             d="m 540.69,231.63 -0.33474,5.0493 -0.98953,3.8102" /><path
             id="path4265"
             style="fill:none;stroke:#e6e6e6;stroke-width:2.0365;stroke-linecap:round"
             d="m 217.99,271.41 0.64181,4.845 1.2767,3.8399" /><path
             id="path4267"
             style="fill:none;stroke:#e6e6e6;stroke-width:2.0365;stroke-linecap:round"
             d="m 222.17,272.78 0.53807,4.845 1.1944,3.8399" /><path
             id="path4269"
             style="fill:none;stroke:#e6e6e6;stroke-width:2.0365;stroke-linecap:round"
             d="m 226.36,274.21 0.33059,4.845 1.03,3.8399" /><path
             id="path4271"
             style="fill:none;stroke:#e6e6e6;stroke-width:2.0365;stroke-linecap:round"
             d="m 230.33,275.09 0.22684,4.845 0.9478,3.8399" /><path
             id="path4273"
             style="fill:none;stroke:#e6e6e6;stroke-width:2.0365;stroke-linecap:round"
             d="m 238.6,277.15 -0.3956,4.845 0.45448,3.8399" /><path
             id="path4275"
             style="fill:none;stroke:#e6e6e6;stroke-width:2.0365;stroke-linecap:round"
             d="m 234.56,276.01 0.0194,4.845 0.78336,3.8399" /><path
             id="path4277"
             style="fill:none;stroke:#e6e6e6;stroke-width:2.0365;stroke-linecap:round"
             d="m 241.9,278.1 0.0194,4.845 0.78336,3.8399" /><path
             id="path4279"
             style="fill:none;stroke:#e6e6e6;stroke-width:2.0365;stroke-linecap:round"
             d="m 245.93,278.67 -0.29185,4.845 0.5367,3.8399" /><path
             id="path4281"
             style="fill:none;stroke:#e6e6e6;stroke-width:2.0365;stroke-linecap:round"
             d="m 249.56,279.07 -0.0844,4.845 0.70114,3.8399" /><path
             id="path4283"
             style="fill:none;stroke:#e6e6e6;stroke-width:2.0365;stroke-linecap:round"
             d="m 254.12,279.56 -0.29186,4.845 0.5367,3.8399" /><path
             id="path4285"
             style="fill:none;stroke:#e6e6e6;stroke-width:2.0365;stroke-linecap:round"
             d="m 259.11,280.11 -0.49934,4.845 0.37226,3.8399" /><path
             id="path4287"
             style="fill:none;stroke:#e6e6e6;stroke-width:2.0365;stroke-linecap:round"
             d="m 262.84,280.53 -0.18812,4.845 0.61892,3.8399" /><path
             id="path4289"
             style="fill:none;stroke:#e6e6e6;stroke-width:2.0365;stroke-linecap:round"
             d="m 271.42,280.96 -0.18812,4.845 0.61892,3.8399" /><path
             id="path4291"
             style="fill:none;stroke:#e6e6e6;stroke-width:2.0365;stroke-linecap:round"
             d="m 276.47,281.52 -0.39559,4.845 0.45448,3.8399" /><path
             id="path4293"
             style="fill:none;stroke:#e6e6e6;stroke-width:2.0365;stroke-linecap:round"
             d="m 281.28,281.75 -0.60307,4.845 0.29004,3.8399" /><path
             id="path4295"
             style="fill:none;stroke:#e6e6e6;stroke-width:2.0666;stroke-linecap:round"
             d="m 284.74,281.83 -0.0808,5.2125 0.67108,4.1311" /><path
             id="path4297"
             style="fill:none;stroke:#e6e6e6;stroke-width:2.0666;stroke-linecap:round"
             d="m 289.24,281.92 -0.0808,5.2125 0.6711,4.1311" /><path
             id="path4299"
             style="fill:none;stroke:#e6e6e6;stroke-width:2.0726;stroke-linecap:round"
             d="m 294.03,281.94 -0.56702,5.3372 0.2727,4.23" /><path
             id="path4301"
             style="fill:none;stroke:#e6e6e6;stroke-width:2.0815;stroke-linecap:round"
             d="m 297.91,281.96 -0.26739,5.5243 0.49172,4.3782" /><path
             id="path4303"
             style="fill:none;stroke:#e6e6e6;stroke-width:2.0899;stroke-linecap:round"
             d="m 306.32,282.04 -0.17189,5.5837 0.56556,4.4253" /><path
             id="path4305"
             style="fill:none;stroke:#e6e6e6;stroke-width:2.0777;stroke-linecap:round"
             d="m 310.9,282.37 -0.26945,5.4624 0.4955,4.3292" /><path
             id="path4307"
             style="fill:none;stroke:#e6e6e6;stroke-width:2.0899;stroke-linecap:round"
             d="m 315.06,282.46 -0.1719,5.5837 0.56556,4.4253" /><path
             id="path4309"
             style="fill:none;stroke:#e6e6e6;stroke-width:2.0899;stroke-linecap:round"
             d="m 318.4,282.17 -0.1719,5.5837 0.56556,4.4253" /><path
             id="path4311"
             style="fill:none;stroke:#e6e6e6;stroke-width:2.0852;stroke-linecap:round"
             d="m 325.89,282.43 -0.0785,5.4582 0.65248,4.3259" /><path
             id="path4313"
             style="fill:none;stroke:#e6e6e6;stroke-width:2.0891;stroke-linecap:round"
             d="m 322.06,282.52 0.0181,5.456 0.73202,4.3241" /><path
             id="path4315"
             style="fill:none;stroke:#e6e6e6;stroke-width:2.0833;stroke-linecap:round"
             d="m 330.2,282.09 -0.3549,5.6514 0.40772,4.479" /><path
             id="path4317"
             style="fill:none;stroke:#e6e6e6;stroke-width:2.1128;stroke-linecap:round"
             d="m 333.81,281.88 0.0176,5.763 0.70888,4.5674" /><path
             id="path4319"
             style="fill:none;stroke:#e6e6e6;stroke-width:2.1083;stroke-linecap:round"
             d="m 338.21,281.6 -0.53133,5.8936 0.25554,4.6709" /><path
             id="path4321"
             style="fill:none;stroke:#e6e6e6;stroke-width:2.1124;stroke-linecap:round"
             d="m 342.65,281.09 -0.42344,6.1474 0.31568,4.8721" /><path
             id="path4323"
             style="fill:none;stroke:#e6e6e6;stroke-width:2.1076;stroke-linecap:round"
             d="m 347.14,280.63 -0.33377,6.1501 0.38344,4.8742" /><path
             id="path4325"
             style="fill:none;stroke:#e6e6e6;stroke-width:2.0958;stroke-linecap:round"
             d="m 351.57,280.57 -0.34402,5.9006 0.39522,4.6764" /><path
             id="path4327"
             style="fill:none;stroke:#e6e6e6;stroke-width:2.096;stroke-linecap:round"
             d="m 355.21,280.15 -0.2595,5.7724 0.4772,4.5748" /><path
             id="path4329"
             style="fill:none;stroke:#e6e6e6;stroke-width:2.0794;stroke-linecap:round"
             d="m 359.29,279.98 -0.45648,5.5255 0.34031,4.3792" /><path
             id="path4331"
             style="fill:none;stroke:#e6e6e6;stroke-width:2.0594;stroke-linecap:round"
             d="m 363.58,279.82 -0.37572,5.2165 0.43164,4.1343" /><path
             id="path4333"
             style="fill:none;stroke:#e6e6e6;stroke-width:2.0365;stroke-linecap:round"
             d="m 210.22,267.13 0.81868,4.9596 1.387,3.8575" /><path
             id="path4335"
             style="fill:none;stroke:#e6e6e6;stroke-width:2.0365;stroke-linecap:round"
             d="m 213.96,269.18 0.92359,4.9596 1.4686,3.8575" /><path
             id="path4337"
             style="fill:none;stroke:#e6e6e6;stroke-width:1.9471;stroke-linecap:round"
             d="m 206.66,264.79 0.53139,4.2997 1.2043,3.3442" /><path
             id="path4339"
             style="fill:none;stroke:#e6e6e6;stroke-width:1.9389;stroke-linecap:round"
             d="m 202.32,258.35 0.64941,4.1365 1.3103,3.1527" /><path
             id="path4341"
             style="fill:none;stroke:#e6e6e6;stroke-width:2.0551;stroke-linecap:round"
             d="m 368.02,279.65 -0.58449,5.0908 0.2811,4.0347" /><path
             id="path4343"
             style="fill:none;stroke:#e6e6e6;stroke-width:2.0988;stroke-linecap:round"
             d="m 301.96,282.06 0.0179,5.5787 0.72259,4.4214" /><path
             id="path4345"
             d="m 267.33,280.77 -0.29186,4.845 0.5367,3.8399"
             style="fill:none;stroke:#e6e6e6;stroke-width:2.0365;stroke-linecap:round" /><path
             id="path4347"
             d="m 371.81,279.19 -0.58001,5.1524 0.27895,4.0834"
             style="fill:none;stroke:#e6e6e6;stroke-width:2.0596;stroke-linecap:round" /><path
             id="path4349"
             style="fill:none;stroke:#e6e6e6;stroke-width:2.0365;stroke-linecap:round"
             d="m 374.87,279.06 -0.29185,4.845 0.5367,3.8399" /><path
             id="path4351"
             d="m 377.97,278.95 -0.29185,4.845 0.5367,3.8399"
             style="fill:none;stroke:#e6e6e6;stroke-width:2.0365;stroke-linecap:round" /></g></g></g><path
       style="fill:#bd865a;fill-opacity:1;stroke:#694a40;stroke-width:4.1642;stroke-dasharray:none;stroke-dashoffset:0;stroke-opacity:1;marker-start:url(#Sketch-6-4);marker-mid:url(#RoundedArrow-4-7)"
       d="m 902.93634,357.79385 68.4006,48.07147"
       id="path92-6-1" /><text
       xml:space="preserve"
       style="font-style:normal;font-variant:normal;font-weight:bold;font-stretch:normal;font-size:23.8917px;font-family:'Marker Felt';-inkscape-font-specification:'Marker Felt Bold';font-variant-ligatures:normal;font-variant-caps:normal;font-variant-numeric:normal;font-variant-east-asian:normal;letter-spacing:0.243183px;word-spacing:0.0511965px;direction:ltr;fill:#694a40;fill-opacity:1;stroke:#694a40;stroke-width:1;stroke-dasharray:none;stroke-dashoffset:0;stroke-opacity:1"
       x="968.85065"
       y="432.60843"
       id="text92-8-8"><tspan
         id="tspan92-5-8"
         x="968.85065"
         y="432.60843"
         style="font-style:normal;font-variant:normal;font-weight:bold;font-stretch:normal;font-size:23.8917px;font-family:'American Typewriter';-inkscape-font-specification:'American Typewriter';letter-spacing:0.243183px;word-spacing:0.0511965px;fill:#694a40;fill-opacity:1;stroke:none;stroke-width:1;stroke-dasharray:none;stroke-opacity:1">Lames</tspan></text></g></svg>
